<svg xmlns="http://www.w3.org/2000/svg" width="600" height="396" fill="none" viewBox="0 0 600 396">
    <path fill="#DD9588" d="M43.152 135.44s-.777-2.506 1.124-5.445l.172 2.161-1.296 3.284z"/>
    <path fill="#E2B674" d="M539.454 381.208c.519-.864 1.037-1.728 1.555-2.679 3.629-9.938 2.333-16.073.692-19.789-6.481-14.518-24.193-22.296-63.161-28.604-2.852-.432-20.651-6.049-27.649-23.073-4.58-11.062-1.988-22.123-.173-28.777 6.221-23.505 20.132-25.493 27.563-44.85 6.134-15.987 5.875-38.715-6.135-55.652-15.034-21.259-43.548-26.444-64.544-22.209-20.564 4.148-34.734 18.061-41.819 26.53-4.061-9.074-11.06-22.037-22.983-34.653-28.946-30.851-73.271-45.455-113.535-39.925-45.016 6.222-72.924 35.95-86.922 50.9-78.54 83.91-58.668 212.584-54.434 236.953H658c-29.896-4.234-76.813-8.987-118.546-14.172z"/>
    <path fill="#FFD494" d="M186.669 375.764c3.542 7.345 9.763 11.234 12.442 12.962 1.382.864 7.776 4.753 16.848 5.79 2.16.259 3.716.259 4.58.259 46.226 0 68.691.692 85.367.692 38.881 0 100.746-.173 182.311-.173 11.233-6.049 58.841-34.826 77.418-97.391 1.296-4.235 25.23-90.651-18.059-140.859-2.678-3.111-29.722-33.703-58.149-26.53-29.982 7.518-34.043 50.467-70.592 59.109-15.553 3.716-28.6-.778-33.006-2.333-36.03-12.79-36.376-51.245-68.086-61.788-16.417-5.444-37.931-.864-50.201 14.863-17.194 21.95-14.17 59.541 1.037 82.615 9.159 13.826 18.75 17.542 24.107 35.171 1.901 6.222 5.702 19.53-.173 33.789-8.295 19.962-29.204 26.53-32.488 27.048-38.709 6.222-68.95 15.555-74.048 33.53-4.061 13.481.692 23.246.692 23.246z"/>
    <path fill="#F89C53" d="M457.544 361.159c9.591-1.382 12.528-6.394 23.069-6.049 8.554.259 10.11 3.716 20.305 6.049 5.53 1.297 22.465 5.185 31.797-2.333 10.973-8.987 11.232-27.653 3.197-41.048-9.764-16.073-24.28-23.591-29.205-38.801-2.073-6.394-.777-8.814-1.209-18.147-1.469-32.665-16.935-68.528-28.686-68.01-4.32.173-7.258 5.185-11.319 12.185-5.616 9.506-5.616 16.333-8.986 34.999-2.765 14.95-4.061 22.468-7.172 30.418-4.493 11.666-7.862 13.568-14.256 25.407-9.591 17.542-20.305 37.159-12.961 50.812 5.876 10.889 22.984 16.247 35.426 14.518z"/>
    <path fill="#465477" d="M491.932 395.294S477.244 362.542 480.095 331c2.851-31.628 6.221-25.234 1.728-53.233-4.493-27.998-2.073-48.911-2.073-48.911s-9.937 38.282-3.629 60.405c6.307 22.122-9.591 31.023-8.468 65.417 1.123 34.394-.086 40.616-.086 40.616h24.365z"/>
    <path fill="#465477" d="M481.218 321.149l31.624-8.815-32.747 18.925 1.123-10.11zM478.194 307.581l-23.761-14.172 23.761 4.494V307.581z"/>
    <path fill="#F26F6F" d="M553.624 347.679c22.524 0 40.783-18.262 40.783-40.789s-18.259-40.789-40.783-40.789c-22.523 0-40.782 18.262-40.782 40.789s18.259 40.789 40.782 40.789z"/>
    <path fill="#465477" d="M554.662 318.902l31.796-8.815-32.833 18.925 1.037-10.11zM553.625 306.89l-23.848-14.172 23.848 9.073v5.099z"/>
    <path fill="#465477" d="M554.402 284.249l-7.603 111.045h13.651l-6.048-111.045z"/>
    <path fill="#FAB074" d="M206.023 379.652l-.864 4.926 13.911 4.58.864.432c.864.519.518 1.815-.518 1.901l-13.134.865c-2.074.172-8.554.345-10.109-.692-1.728-1.123-1.383-.95-1.642-2.506l.605-3.284.778-6.654 10.109.432z"/>
    <path fill="#544A89" d="M195.223 384.405s-2.42 8.296 1.814 9.938c3.715 1.383 13.652.951 21.515.692 2.505-.087 6.998-.519 6.48-2.593-.605-2.333-12.097-5.271-12.097-5.271.519.172 2.333.777 2.938.95 1.469.519-.259 1.21-2.246 1.296-5.098.26-19.441.605-18.404-5.012z"/>
    <path fill="#453C73" d="M227.105 209.153s2.16 31.542-6.48 86.503l-15.207 86.935-9.936-.432s-.951-68.01 5.27-89.614c-.605-15.296-5.53-27.913-8.208-41.48-3.024-3.198-4.666-7.346-5.616-10.889-1.988-6.827-1.296-20.221 2.592-25.838 6.307-9.42 11.578-9.852 37.585-5.185z"/>
    <path fill="#403A65" d="M187.36 219.264s5.271 8.382 10.8 9.678c5.876 1.469 12.615 64.899 12.615 64.899l4.493 26.53s-3.974-26.616-9.504-38.801c-2.16-4.839-7.949-19.271-12.701-29.468-2.074-2.765-3.889-4.235-5.271-8.815-2.765-9.333-1.21-16.764-.432-24.023z" opacity=".4"/>
    <path fill="#FAB074" d="M236.783 380.257l1.036 5.099 13.825 4.494.864.432c.864.518.519 1.814-.518 1.901l-13.134.864c-2.073.173-8.554.346-10.109-.691-1.728-1.124-1.382-.951-1.642-2.506l.605-3.284-.345-6.827 9.418.518z"/>
    <path fill="#544A89" d="M227.624 384.924s-2.247 8.469 1.987 10.111c3.716 1.382 13.652.95 21.515.691 2.505-.086 6.998-.519 6.48-2.593-.605-2.333-12.097-5.271-12.097-5.271.605.173 2.333.778 2.938.951 1.469.518-.259 1.209-2.246 1.296-5.098.259-18.318.346-18.577-5.185z"/>
    <path fill="#4B4C61" d="M441.127 395.38H269.702c-7.776 0-14.083-6.308-14.083-14.086V62.936c0-7.777 6.307-14.086 14.083-14.086h171.425c7.777 0 14.084 6.309 14.084 14.086v318.358c-.086 7.778-6.394 14.086-14.084 14.086z"/>
    <path fill="#fff" d="M433.869 71.837H276.874v161.945h156.995V71.837z"/>
    <path fill="#8FDD66" d="M355.501 220.041c26.532 0 48.041-21.511 48.041-48.047 0-26.536-21.509-48.048-48.041-48.048-26.532 0-48.04 21.512-48.04 48.048s21.508 48.047 48.04 48.047z"/>
    <path stroke="#fff" stroke-linecap="round" stroke-miterlimit="10" stroke-width="12.847" d="M335.628 174.759l18.923 12.271 20.737-33.616"/>
    <path fill="#fff" d="M255.446 327.543V62.936c0-7.777 6.307-14.086 14.084-14.086h147.75L255.446 327.543z" opacity=".3"/>
    <path fill="#fff" d="M433.697 250.114H276.874v23.851h156.823v-23.851z" opacity=".55"/>
    <path fill="#544A89" d="M235.141 216.93s-3.716-5.185-20.823-6.74c-5.185-.432-11.319-1.988-11.319-1.988s-2.938 1.21-5.789 3.976c-1.556 1.555-5.271 5.098-6.221 13.308-1.037 9.246 1.123 14.604 1.641 16.505 1.296 4.494 4.666 7.605 7.345 10.975 8.208 22.9 9.59 34.394 10.8 38.715 1.901 24.888 16.676 91.601 16.676 91.601h9.936s-2.678-85.379-2.678-91.515c0-13.481-1.901-37.505-1.296-54.442 1.555-11.839 1.728-18.061 1.728-20.395z"/>
    <path fill="#fff" d="M433.697 281.483H276.874v23.851h156.823v-23.851zM433.697 312.939H276.874v23.851h156.823v-23.851z" opacity=".55"/>
    <path fill="#819ED2" d="M112.448 258.151H82.034v30.419h30.414v-30.419z"/>
    <path fill="#7894C5" d="M85.404 288.483l-.432-4.839h23.242v4.839l1.987.087v-9.161H82.552l1.124 9.074h1.728z"/>
    <path fill="#A0C8EA" d="M149.774 275.78h-37.412v30.419h37.412V275.78z"/>
    <path fill="#BAD7F0" d="M134.999 279.669l-2.419 24.024h-21.255v2.938h30.155v-3.803h8.294v-3.888h-12.01l1.728-19.271h-4.493z"/>
    <path fill="#6E82A8" d="M151.934 306.198h-44.93v30.419h44.93v-30.419z"/>
    <path fill="#65779A" d="M116.163 306.198v17.629h15.639l-1.296 13.568h3.716l1.814-17.111h-17.885v-14.086h-1.988z"/>
    <path fill="#BAD7F0" d="M108.992 288.483H78.578v30.419h30.414v-30.419z"/>
    <path fill="#A0C8EA" d="M111.325 288.483L90.242 316.05l-4.839-27.567-3.37.087 2.16 28.517h26.095l1.037-28.604z"/>
    <path fill="#7287AF" d="M107.004 318.988H69.16v16.851h37.844v-16.851z"/>
    <path fill="#697CA0" d="M69.16 335.839c3.37 0 37.844-14.431 37.844-14.431v14.431H69.16z"/>
    <path fill="#3ABD9D" d="M433.697 348.456h-51.238v22.209h51.238v-22.209z"/>
    <path fill="#02A4D3" d="M377.88 167.587H275.751c-6.048 0-10.973-4.926-10.973-10.975v-54.27c0-6.049 4.925-10.975 10.973-10.975h102.042c6.049 0 10.974 4.926 10.974 10.975v54.27c.086 6.049-4.839 10.975-10.887 10.975z"/>
    <path fill="#ECE9E7" d="M342.627 125.329h-69.123v12.962h69.123v-12.962zM388.853 107.354H264.604v12.963h124.249v-12.963z"/>
    <path fill="#F6CA65" d="M380.645 348.456h-51.238v22.209h51.238v-22.209z"/>
    <path fill="#F26F6F" d="M327.42 348.456h-51.238v22.209h51.238v-22.209z"/>
    <path stroke="#F26F6F" stroke-linecap="round" stroke-miterlimit="10" stroke-width="6.12" d="M319.212 38.999c-.087-19.27 15.552-34.912 34.82-34.999 19.268-.086 34.907 15.555 34.994 34.826"/>
    <path stroke="#F28282" stroke-linecap="round" stroke-miterlimit="10" stroke-width="6.12" d="M334.159 39.777c0-11.407 9.246-20.74 20.651-20.74s20.737 9.246 20.737 20.653"/>
    <path fill="#FF9D9D" d="M346.861 40.554c0-3.975 3.197-7.259 7.258-7.259 3.974 0 7.258 3.198 7.258 7.26h-14.516z"/>
    <path fill="#FBAD83" d="M277.22 107.873c-1.037-.951-3.37 2.074-4.666 2.16h-.691c-.173 0-.691-.518-1.21-.518-.346 0-.864.259-.95.259-.432 0-.951-.518-1.469-.518-.346 0-.951.518-1.296.518-.432.086-1.21-.346-1.815-.173-.864.173-1.037.519-1.814 1.21-3.024 2.506-2.938 6.395-4.148 7.864-2.851 3.802-12.614 8.901-22.378 15.641-4.58 3.111-19.095 11.321-19.095 11.321l-6.049 3.629s-13.479-26.097-16.675-5.444c0 0 .864 13.74 13.824 26.616 5.703 2.852 17.194-6.74 26.094-15.555l.086.087 1.296-1.383c6.135-6.222 10.715-11.666 10.715-11.666l-.087-.086c.691-.778 10.109-11.84 12.615-14.518 1.901-1.988 4.493-3.63 6.221-4.062 1.037-.259 3.283-1.555 5.616-2.852 1.642-.95 2.42-2.506 3.111-3.629.691-1.037-.691-1.037-1.901-.605-.95.346-3.37 1.642-3.543 1.555.26-.432.778-.864 1.21-1.296 1.037-.95 1.642-1.728 2.333-2.506 1.123-1.21 1.642-2.074 2.506-2.852.691-.432 3.024-2.419 2.16-3.197z"/>
    <path fill="#F071A9" d="M242.053 165.945c.691 5.012.519 7.95-3.629 12.617-2.333 2.592-1.382 8.382-1.901 12.53-.777 6.827-1.296 11.234-.864 17.37.087.777.173 11.32-.691 13.653-1.555 4.321-5.184 3.976-10.8 4.235-2.506.086-5.271.173-8.468.086-22.551-.345-28.859-5.53-28.859-5.53s.778-4.753 3.975-10.63c3.542-6.394 6.135-13.308 6.307-17.974 1.21-28.431 3.284-44.678 8.122-50.9 4.58-6.74 11.319-7.604 11.319-7.604s13.047-1.642 22.206 5.703c5.962 4.753 7.69 7.086 7.69 7.086l-8.122 14.778 4.32.864c.086 0-.95.864-.605 3.716z"/>
    <path fill="#FBAD83" d="M246.46 146.588l23.069 20.999 30.933-.519s3.629-2.247 5.616-2.679c1.296-.259 3.456-.259 5.53.692.086 2.16-3.543 1.901-3.543 1.901l3.197.259 7.517.346-3.801 2.419s-4.752 3.198-6.999 3.371c-1.555.172-7.258-.951-7.258-.951l-30.846 7c-1.21.259-2.592.086-3.629-.605l-27.822-17.456 8.036-14.777z"/>
    <path fill="url(#paint0_linear)" d="M171.462 279.064c-.864-1.21-2.247-1.901-3.716-1.901H46.176l-3.283-14.259c-.691-2.938-3.197-4.926-6.22-4.926h-26.44c-1.21 0-2.16.951-2.16 2.161 0 1.209.95 2.16 2.16 2.16h26.44c.95 0 1.813.691 1.986 1.642l3.63 15.901v.086l9.072 39.838 4.666 20.481h.086l9.936 37.85c.691 2.679 3.197 4.58 5.962 4.58h80.355c1.21 0 2.161-.951 2.161-2.16 0-1.21-.951-2.161-2.161-2.161H72.011c-.864 0-1.641-.605-1.814-1.382l-9.591-36.814h91.328c2.074 0 3.975-1.383 4.58-3.457l15.725-53.491c.432-1.469.173-2.938-.777-4.148zm-13.652 38.023h-18.923l1.383-15.901h22.206l-4.666 15.901zm-23.243 0h-21.341v-15.901h22.724l-1.383 15.901zm-25.575-15.901v15.901h-22.12l-1.382-15.901h23.502zm-23.934-4.32l-1.382-15.469h25.316v15.469H85.058zm-2.506 20.221H55.335l-3.629-15.901H81.17l1.382 15.901zm-26.266 4.321h26.698l1.297 14.431H59.654l-3.37-14.431zm30.932 0h21.774v14.431H88.514l-1.296-14.431zm26.008 0h20.996l-1.296 14.431h-19.7v-14.431zm0-24.542v-15.469h24.538l-1.382 15.469h-23.156zm-33.87-15.383l1.382 15.469H50.669l-3.542-15.469h32.229zm73.097 54.011c-.087.172-.259.345-.519.345h-14.775l1.296-14.431h18.059l-4.061 14.086zm15.639-53.492l-4.407 14.95h-23.069l1.382-15.469h25.748c.173 0 .26.087.346.173 0 0 .086.173 0 .346z"/>
    <path stroke="#737E9A" stroke-linecap="round" stroke-miterlimit="10" stroke-width="7.425" d="M152.453 380.517H72.097c-1.814 0-3.456-1.21-3.888-3.025L57.841 338l-17.28-75.442c-.346-1.469-1.642-2.506-3.111-2.506H11.356"/>
    <path fill="#86ACD5" d="M24.057 264.373H3.407c-2.42 0-4.407-1.988-4.407-4.407 0-2.42 1.987-4.407 4.407-4.407h20.65v8.814z"/>
    <path fill="#737E9A" d="M81.688 395.294c3.627 0 6.567-2.941 6.567-6.568s-2.94-6.567-6.567-6.567c-3.626 0-6.566 2.94-6.566 6.567 0 3.627 2.94 6.568 6.566 6.568zM139.06 395.294c3.627 0 6.567-2.941 6.567-6.568s-2.94-6.567-6.567-6.567c-3.626 0-6.566 2.94-6.566 6.567 0 3.627 2.94 6.568 6.566 6.568z"/>
    <path fill="#9ABDE2" d="M81.688 392.788c2.243 0 4.061-1.819 4.061-4.062 0-2.243-1.818-4.061-4.06-4.061-2.243 0-4.062 1.818-4.062 4.061s1.819 4.062 4.061 4.062zM139.06 392.788c2.243 0 4.061-1.819 4.061-4.062 0-2.243-1.818-4.061-4.061-4.061s-4.061 1.818-4.061 4.061 1.818 4.062 4.061 4.062z"/>
    <path fill="#D36396" d="M238.943 179.598c-2.333 2.507-2.16 8.469-2.42 12.531-.345 6.74-.864 13.481-.864 13.481-.172 5.876-.086 13.74-.864 20.135-4.665.432-10.627.691-10.627.691v.087c0-1.469 3.11-11.667 4.147-30.851 1.037-19.617 10.109-34.221 10.109-34.221l4.32 2.506s-1.468.951-.691 3.63c1.296 4.407 1.037 7.431-3.11 12.011z"/>
    <path stroke="#9764A7" stroke-linecap="round" stroke-miterlimit="10" stroke-width=".533" d="M187.101 222.807s9.504 6.827 37.844 5.271l2.506 23.851 6.048 50.294 2.333 80.454"/>
    <path fill="#D36396" d="M191.767 145.55s.777 22.728 18.058 23.333c29.55 1.037 25.403-32.406 36.203-22.9 0 0-3.024-3.63-10.368-8.642 0 0-3.37 9.679-10.974 13.308-5.443 2.593-25.143 4.666-32.919-5.099z"/>
    <path stroke="#F8BBD6" stroke-linecap="round" stroke-miterlimit="10" stroke-width=".533" d="M237.474 141.403c5.011 2.765 7.862 5.876 7.862 5.876l-6.912 13.222"/>
    <path stroke="#9764A7" stroke-linecap="round" stroke-miterlimit="10" stroke-width=".533" d="M194.964 230.325l3.801 11.58 4.148 2.074 5.27-2.074-.691-10.457-12.528-1.123zM187.878 229.547l1.728-.086.26 9.074-2.074.95-.951-2.333-.345-7.778 1.382.173z"/>
    <path fill="#FCC197" d="M208.961 113.922c2.937 15.209 14.775 13.395 24.452 12.53 7.603-1.469 6.999-14.863 7.776-25.32-.173-2.506-.605-5.79-.95-8.123-1.815-10.715-18.145-8.296-27.39-3.888-7.517 3.716-6.135 13.308-3.888 24.801z"/>
    <path stroke="#fff" stroke-linecap="round" stroke-miterlimit="10" stroke-width="1.023" d="M241.103 113.663c.334 0 .605-2.67.605-5.963s-.271-5.963-.605-5.963c-.334 0-.605 2.67-.605 5.963s.271 5.963.605 5.963z"/>
    <path stroke="#fff" stroke-linecap="round" stroke-miterlimit="10" stroke-width="1.525" d="M240.066 108.478h-11.492"/>
    <path fill="url(#paint1_linear)" d="M197.815 166.809c13.479 6.827 31.191-2.074 35.857-13.308 4.752-11.407.778-25.147-2.938-31.888-1.641-2.938-5.097-11.407-.691-14.864 3.024-2.419 9.591-4.839 10.196-9.419.691-4.84-.432-6.74-2.42-9.074-6.134-7.172-21.946-4.148-29.55 4.408-6.048 6.826-12.355 18.061-16.157 27.048-6.221 14.604-5.443 25.925-4.925 30.505.864 6.654 2.506 12.53 10.628 16.592z"/>
    <path fill="#633B2C" d="M187.965 133.02c.605 0-3.284 17.197 6.307 26.962 6.653 6.827 17.195 7.345 25.316 6.74-2.246 1.037-7.344 3.025-13.997 2.334-1.296-.173-7.431-.778-12.096-4.58-11.579-9.247-5.876-29.987-5.53-31.456z"/>
    <defs>
        <linearGradient id="paint0_linear" x1="5.505" x2="167.989" y1="263.992" y2="357.788" gradientUnits="userSpaceOnUse">
            <stop offset="0" stop-color="#00659C"/>
            <stop offset=".567" stop-color="#F1FAFE"/>
            <stop offset="1" stop-color="#5F84B2"/>
        </linearGradient>
        <linearGradient id="paint1_linear" x1="213.645" x2="213.645" y1="84.24" y2="169.302" gradientUnits="userSpaceOnUse">
            <stop offset="0" stop-color="#CF8B4B"/>
            <stop offset="1" stop-color="#703952"/>
        </linearGradient>
    </defs>
</svg>
